<?xml version="1.0" encoding="UTF-8" standalone="no"?>
<svg
   viewBox="0 0 1000 500"
   version="1.1"
   id="svg449"
   sodipodi:docname="logo-gh-myq.svg"
   width="1000"
   height="500"
   inkscape:version="1.2 (dc2aedaf03, 2022-05-15)"
   xmlns:inkscape="http://www.inkscape.org/namespaces/inkscape"
   xmlns:sodipodi="http://sodipodi.sourceforge.net/DTD/sodipodi-0.dtd"
   xmlns="http://www.w3.org/2000/svg"
   xmlns:svg="http://www.w3.org/2000/svg">
  <defs
     id="defs453" />
  <sodipodi:namedview
     id="namedview451"
     pagecolor="#ffffff"
     bordercolor="#000000"
     borderopacity="0.25"
     inkscape:showpageshadow="2"
     inkscape:pageopacity="0.0"
     inkscape:pagecheckerboard="0"
     inkscape:deskcolor="#d1d1d1"
     showgrid="false"
     inkscape:zoom="1.21"
     inkscape:cx="500"
     inkscape:cy="215.70248"
     inkscape:window-width="1920"
     inkscape:window-height="1009"
     inkscape:window-x="3832"
     inkscape:window-y="-8"
     inkscape:window-maximized="1"
     inkscape:current-layer="svg449" />
  <g
     id="Layer_2"
     data-name="Layer 2"
     transform="matrix(0.42800524,0,0,0.42800524,85.396281,123.96265)">
    <title
       id="title439">myq</title>
    <g
       id="Layer_1-2"
       data-name="Layer 1">
      <path
         class="cls-1"
         d="M 0,32 C 22.86,26.27 45.57,19.78 68.62,15 103.56,7.72 139,4.61 174.71,3.77 c 34.54,-0.82 68.89,0.72 103,6.3 25,4.09 49.59,9.76 72.09,22.07 4.07,2.22 7.85,5 11.87,7.56 C 399.06,19.93 439,8.19 481.37,5.49 c 58.55,-3.72 114,6.53 164.11,38.67 29.93,19.22 52.62,44.68 63.91,79.14 a 122.26,122.26 0 0 1 6,38.3 q 0.08,157.45 0,314.93 v 4.64 H 558.1 v -5.87 c 0,-87.82 -0.43,-175.63 0.2,-263.44 0.26,-36.38 -21.27,-62 -55.52,-70.54 -21.31,-5.3 -42.22,-3.62 -62.4,5.6 -3.38,1.55 -4.36,3.45 -4.36,7.13 q 0.18,160.47 0.09,320.93 v 6.21 H 279 v -270.8 c 0,-35.64 -19,-59.52 -53.92,-67.13 -23.08,-5 -45.64,-2.37 -68,5.86 v 332.33 h -5.71 q -73,0 -146,0 c -1.8,0 -3.59,0.31 -5.39,0.47 z"
         style="fill:#010101"
         id="path441" />
      <path
         class="cls-2"
         d="m 1626.8,615.92 c -4.63,-0.79 -9.22,-1.95 -13.88,-2.31 -27,-2.08 -44.86,-17.63 -57,-40 -9.4,-17.32 -16.88,-35.69 -25.07,-53.66 -3.73,-8.16 -7.27,-16.41 -10.55,-24.76 -1.24,-3.17 -3,-4 -6.25,-4.27 -32.31,-2.8 -64.72,-5.09 -96.14,-13.93 -34.27,-9.64 -65.57,-24.93 -91.51,-49.78 -27.71,-26.55 -42.94,-58.6 -42.76,-97.57 0.25,-53.47 0.7,-107 -0.13,-160.41 -0.73,-46.77 18.46,-83.26 54.06,-112 29.91,-24.16 64.6,-38.12 102.06,-45.06 35.87,-6.64 72.23,-9.37 108.65,-11.16 a 29.42,29.42 0 0 0 4.56,-1 h 97 a 9.89,9.89 0 0 0 2.48,1 c 33.41,2.99 67.01,4.99 100.32,9.29 37.76,4.83 72.94,17.83 104.24,40 29.14,20.62 50.6,47 59.48,82.34 1.35,5.39 2.28,10.9 3.4,16.35 V 346 a 8.18,8.18 0 0 0 -0.91,2.12 123.36,123.36 0 0 1 -22.2,56.5 c -20.77,29.31 -49.29,48.5 -81.87,62.38 -32.75,14 -67.47,18.55 -102.46,22 -10.4,1 -20.81,1.89 -31.61,2.87 0.68,1.77 1.15,3.14 1.72,4.47 q 24.49,57.27 49,114.56 a 35.85,35.85 0 0 1 1.37,5.08 z M 1440.65,247 q 0,18.74 0,37.48 c 0,27.78 12.66,47.8 37.65,59.53 a 114.54,114.54 0 0 0 26.86,8.86 c 28.86,5.55 58.19,7 87.47,6.74 28.59,-0.24 57.19,-2 85.75,-3.78 15.63,-1 31,-4 45.33,-10.86 24.15,-11.47 38.46,-29.93 39,-57.23 0.49,-27.15 0.31,-54.31 0,-81.47 -0.17,-16.46 -5.94,-30.87 -17.83,-42.59 -9.84,-9.72 -21.77,-15.8 -34.88,-19.57 -23.39,-6.73 -47.59,-7.68 -71.66,-8.8 a 742.15,742.15 0 0 0 -101.79,1.85 c -17.55,1.6 -35.11,3.27 -51.75,9.9 -29.63,11.79 -44.13,33 -44.13,65 q -0.02,17.39 -0.02,34.94 z"
         style="fill:#da0027"
         id="path443" />
      <path
         d="m 858.89,615.92 q 16.23,-38.26 32.47,-76.54 C 899.1,521.22 907,503.12 914.58,484.9 a 9.79,9.79 0 0 0 -0.09,-6.91 Q 816.54,248.53 718.35,19.18 c -0.84,-1.95 -1.56,-3.95 -2.51,-6.35 h 5.35 c 50.49,0 101,0.06 151.47,-0.11 4,0 5.72,1.21 7.25,4.79 q 57.71,135.38 115.64,270.64 c 0.38,0.9 0.81,1.77 1.64,3.58 4.38,-10.16 8.46,-19.56 12.47,-29 26.45,-62.17 52.69,-124.43 79.48,-186.45 4.71,-10.9 11.23,-21.11 17.74,-31.1 12.14,-18.64 29.72,-28.63 51.93,-30.14 13.44,-0.91 26.89,-2 40.35,-2.12 26.14,-0.34 52.3,-0.1 79,-0.1 -0.61,1.75 -1,3.12 -1.56,4.43 q -115.14,269 -230.53,537.85 c -5.31,12.35 -13.46,23.65 -21.34,34.68 -11.83,16.55 -29.57,22.22 -48.94,24.22 -4.33,0.43 -8.61,1.28 -12.91,1.94 z"
         id="path445" />
    </g>
  </g>
</svg>
