<?xml version="1.0" encoding="utf-8"?>
<svg viewBox="0 0 1000 300" xmlns="http://www.w3.org/2000/svg">
  <g id="Layer_2" data-name="Layer 2" transform="matrix(0.48704, 0, 0, 0.48704, 32.5049, -0.00488)" style="">
    <title>myq</title>
    <g id="Layer_1-2" data-name="Layer 1">
      <path class="cls-1" d="M0,32c22.86-5.73,45.57-12.22,68.62-17C103.56,7.72,139,4.61,174.71,3.77c34.54-.82,68.89.72,103,6.3,25,4.09,49.59,9.76,72.09,22.07,4.07,2.22,7.85,5,11.87,7.56C399.06,19.93,439,8.19,481.37,5.49c58.55-3.72,114,6.53,164.11,38.67,29.93,19.22,52.62,44.68,63.91,79.14a122.26,122.26,0,0,1,6,38.3q.08,157.45,0,314.93v4.64H558.1V475.3c0-87.82-.43-175.63.2-263.44.26-36.38-21.27-62-55.52-70.54-21.31-5.3-42.22-3.62-62.4,5.6-3.38,1.55-4.36,3.45-4.36,7.13q.18,160.47.09,320.93v6.21H279V210.39c0-35.64-19-59.52-53.92-67.13-23.08-5-45.64-2.37-68,5.86V481.45h-5.71q-73,0-146,0c-1.8,0-3.59.31-5.39.47Z" style="fill: rgb(1, 1, 1);"/>
      <path class="cls-2" d="M1626.8,615.92c-4.63-.79-9.22-1.95-13.88-2.31-27-2.08-44.86-17.63-57-40-9.4-17.32-16.88-35.69-25.07-53.66-3.73-8.16-7.27-16.41-10.55-24.76-1.24-3.17-3-4-6.25-4.27-32.31-2.8-64.72-5.09-96.14-13.93-34.27-9.64-65.57-24.93-91.51-49.78-27.71-26.55-42.94-58.6-42.76-97.57.25-53.47.7-107-.13-160.41-.73-46.77,18.46-83.26,54.06-112,29.91-24.16,64.6-38.12,102.06-45.06,35.87-6.64,72.23-9.37,108.65-11.16a29.42,29.42,0,0,0,4.56-1h97a9.89,9.89,0,0,0,2.48,1C1685.73,4,1719.33,6,1752.64,10.3c37.76,4.83,72.94,17.83,104.24,40,29.14,20.62,50.6,47,59.48,82.34,1.35,5.39,2.28,10.9,3.4,16.35V346a8.18,8.18,0,0,0-.91,2.12,123.36,123.36,0,0,1-22.2,56.5c-20.77,29.31-49.29,48.5-81.87,62.38-32.75,14-67.47,18.55-102.46,22-10.4,1-20.81,1.89-31.61,2.87.68,1.77,1.15,3.14,1.72,4.47q24.49,57.27,49,114.56a35.85,35.85,0,0,1,1.37,5.08ZM1440.65,247q0,18.74,0,37.48c0,27.78,12.66,47.8,37.65,59.53a114.54,114.54,0,0,0,26.86,8.86c28.86,5.55,58.19,7,87.47,6.74,28.59-.24,57.19-2,85.75-3.78,15.63-1,31-4,45.33-10.86,24.15-11.47,38.46-29.93,39-57.23.49-27.15.31-54.31,0-81.47-.17-16.46-5.94-30.87-17.83-42.59-9.84-9.72-21.77-15.8-34.88-19.57-23.39-6.73-47.59-7.68-71.66-8.8a742.15,742.15,0,0,0-101.79,1.85c-17.55,1.6-35.11,3.27-51.75,9.9-29.63,11.79-44.13,33-44.13,65Q1440.65,229.45,1440.65,247Z" style="fill: rgb(218, 0, 39);"/>
      <path d="M858.89,615.92q16.23-38.26,32.47-76.54c7.74-18.16,15.64-36.26,23.22-54.48a9.79,9.79,0,0,0-.09-6.91Q816.54,248.53,718.35,19.18c-.84-1.95-1.56-3.95-2.51-6.35h5.35c50.49,0,101,.06,151.47-.11,4,0,5.72,1.21,7.25,4.79q57.71,135.38,115.64,270.64c.38.9.81,1.77,1.64,3.58,4.38-10.16,8.46-19.56,12.47-29,26.45-62.17,52.69-124.43,79.48-186.45,4.71-10.9,11.23-21.11,17.74-31.1,12.14-18.64,29.72-28.63,51.93-30.14,13.44-.91,26.89-2,40.35-2.12,26.14-.34,52.3-.1,79-.1-.61,1.75-1,3.12-1.56,4.43q-115.14,269-230.53,537.85c-5.31,12.35-13.46,23.65-21.34,34.68C1012.9,606.33,995.16,612,975.79,614c-4.33.43-8.61,1.28-12.91,1.94Z"/>
    </g>
  </g>
</svg>