<?xml version="1.0" encoding="UTF-8" standalone="no"?>
<svg
   viewBox="0 0 1000 500"
   version="1.1"
   id="svg408"
   sodipodi:docname="logo-gh-inedit.svg"
   width="1000"
   height="500"
   inkscape:version="1.2 (dc2aedaf03, 2022-05-15)"
   xmlns:inkscape="http://www.inkscape.org/namespaces/inkscape"
   xmlns:sodipodi="http://sodipodi.sourceforge.net/DTD/sodipodi-0.dtd"
   xmlns="http://www.w3.org/2000/svg"
   xmlns:svg="http://www.w3.org/2000/svg">
  <defs
     id="defs412" />
  <sodipodi:namedview
     id="namedview410"
     pagecolor="#ffffff"
     bordercolor="#000000"
     borderopacity="0.25"
     inkscape:showpageshadow="2"
     inkscape:pageopacity="0.0"
     inkscape:pagecheckerboard="0"
     inkscape:deskcolor="#d1d1d1"
     showgrid="false"
     inkscape:zoom="0.85559921"
     inkscape:cx="438.28933"
     inkscape:cy="177.65327"
     inkscape:window-width="1920"
     inkscape:window-height="1009"
     inkscape:window-x="3832"
     inkscape:window-y="-8"
     inkscape:window-maximized="1"
     inkscape:current-layer="svg408" />
  <g
     transform="matrix(4.22427,0,0,4.22427,-1633.657,-792.49559)"
     id="g406">
    <title
       id="title396">inedit</title>
    <path
       d="m 425.7,226.08 h -9.5 l 1.53,-8.87 h 9.5 z m -8.1,45.4 h -9.3 l 6.85,-39.27 h 9.22 z m 48.9,-23.81 -4.13,23.82 h -9.22 l 4.33,-24.8 c 0.2,-1.4 0.35,-2.58 0.42,-3.63 0,-2.86 -1.26,-4.13 -4.68,-4.13 -3.74,0.15 -7.39,1.13 -10.7,2.87 l -5.22,29.68 h -9.23 l 6.83,-39.27 h 8.82 l -0.42,3 c 3.94,-2.47 8.48,-3.85 13.13,-4 8.3,0 10.76,4.33 10.76,10.13 -0.07,2.14 -0.31,4.27 -0.7,6.36"
       class="cls-1"
       style="fill:#898a8d"
       id="path398" />
    <path
       d="m 537.04,238.87 c -5.6,0 -9,1.53 -10.7,10.48 l -1,5.58 c -0.25,1.32 -0.39,2.66 -0.4,4 0,4.12 2.08,5.87 6.62,5.87 2.89,-0.04 5.74,-0.64 8.4,-1.76 l 4.25,-23.47 c -2.35,-0.4 -4.73,-0.64 -7.12,-0.7 m 10.61,32.64 H 539 l 0.28,-2 c -3.42,1.98 -7.3,3.03 -11.25,3.06 -7.9,0 -12.3,-4.68 -12.3,-13.2 -0.01,-1.88 0.18,-3.75 0.56,-5.6 l 1,-5.56 c 2.6,-13.76 9.7,-17 19.9,-17 2.68,0 5.36,0.26 8,0.77 L 548,217.21 h 9.23 z m 27.83,-45.43 h -9.5 l 1.54,-8.87 h 9.5 z m -8.1,45.4 h -9.3 L 565,232.21 h 9.22 z m 38.21,-31.97 h -9.57 l -3.9,21.3 c -0.22,0.92 -0.34,1.86 -0.36,2.8 0,1.53 0.85,1.88 3.22,1.88 2,0 4.82,-0.14 5.94,-0.28 l -1,6.2 c -2.67,0.7 -5.41,1.08 -8.17,1.13 -6.37,0 -9.1,-2.8 -9.1,-8.3 -0.01,-1.29 0.11,-2.58 0.35,-3.86 l 3.78,-20.88 -7.2,-0.57 1.07,-6.72 h 7.33 l 1.82,-10 h 9.22 l -1.77,10 h 9.57 z"
       class="cls-1"
       style="fill:#898a8d"
       id="path400" />
    <path
       d="m 494.36,238.59 c -7.27,0 -9.43,5 -10.27,9.5 l -0.08,0.63 h 17 c 0.25,-1.28 0.39,-2.59 0.42,-3.9 0,-3.36 -1.4,-6.22 -7.13,-6.22 m 14.82,16.13 H 482.9 c -0.3,1.44 -0.48,2.89 -0.55,4.35 0,3.7 1.88,5.86 9.08,5.86 4.2,0 9.08,-0.4 14.4,-0.9 l -1.13,6.85 c -4.92,1.12 -9.95,1.68 -15,1.68 -11.1,0 -16.28,-4.47 -16.28,-13.83 0.01,-2.27 0.25,-4.54 0.7,-6.78 l 0.5,-2.44 c 2.68,-13.17 9.81,-18.31 20.43,-18.31 10.27,0 15.3,5.17 15.3,14 -0.08,3.2 -0.48,6.39 -1.2,9.5"
       class="cls-2"
       style="fill:#ff5100"
       id="path402" />
    <path
       d="m 481.93,224.48 1.27,-7.27 H 512 l -1.25,7.28 h -28.82 z"
       class="cls-2"
       style="fill:#ff5100"
       id="path404" />
  </g>
</svg>
