<?xml version="1.0" encoding="utf-8"?>
<svg viewBox="0 0 1000 300" xmlns="http://www.w3.org/2000/svg">
  <g style="" transform="matrix(4.22427, 0, 0, 4.22427, -1644.1759, -917.55414)">
    <title>inedit</title>
    <path d="M 425.7 226.08 L 416.2 226.08 L 417.73 217.21 L 427.23 217.21 Z M 417.6 271.48 L 408.3 271.48 L 415.15 232.21 L 424.37 232.21 Z M 466.5 247.67 L 462.37 271.49 L 453.15 271.49 L 457.48 246.69 C 457.68 245.29 457.83 244.11 457.9 243.06 C 457.9 240.2 456.64 238.93 453.22 238.93 C 449.48 239.08 445.83 240.06 442.52 241.8 L 437.3 271.48 L 428.07 271.48 L 434.9 232.21 L 443.72 232.21 L 443.3 235.21 C 447.24 232.74 451.78 231.36 456.43 231.21 C 464.73 231.21 467.19 235.54 467.19 241.34 C 467.12 243.48 466.88 245.61 466.49 247.7" class="cls-1" style="fill: rgb(137, 138, 141);"/>
    <path d="M 537.04 238.87 C 531.44 238.87 528.04 240.4 526.34 249.35 L 525.34 254.93 C 525.09 256.25 524.95 257.59 524.94 258.93 C 524.94 263.05 527.02 264.8 531.56 264.8 C 534.45 264.76 537.3 264.16 539.96 263.04 L 544.21 239.57 C 541.86 239.17 539.48 238.93 537.09 238.87 M 547.7 271.51 L 539 271.51 L 539.28 269.51 C 535.86 271.49 531.98 272.54 528.03 272.57 C 520.13 272.57 515.73 267.89 515.73 259.37 C 515.72 257.49 515.91 255.62 516.29 253.77 L 517.29 248.21 C 519.89 234.45 526.99 231.21 537.19 231.21 C 539.87 231.21 542.55 231.47 545.19 231.98 L 548 217.21 L 557.23 217.21 Z M 575.53 226.08 L 566.03 226.08 L 567.57 217.21 L 577.07 217.21 Z M 567.43 271.48 L 558.13 271.48 L 565 232.21 L 574.22 232.21 Z M 605.64 239.51 L 596.07 239.51 L 592.17 260.81 C 591.95 261.73 591.83 262.67 591.81 263.61 C 591.81 265.14 592.66 265.49 595.03 265.49 C 597.03 265.49 599.85 265.35 600.97 265.21 L 599.97 271.41 C 597.3 272.11 594.56 272.49 591.8 272.54 C 585.43 272.54 582.7 269.74 582.7 264.24 C 582.69 262.95 582.81 261.66 583.05 260.38 L 586.83 239.5 L 579.63 238.93 L 580.7 232.21 L 588.03 232.21 L 589.85 222.21 L 599.07 222.21 L 597.3 232.21 L 606.87 232.21 Z" class="cls-1" style="fill: rgb(137, 138, 141);"/>
    <path d="M 494.36 238.59 C 487.09 238.59 484.93 243.59 484.09 248.09 L 484.01 248.72 L 501.01 248.72 C 501.26 247.44 501.4 246.13 501.43 244.82 C 501.43 241.46 500.03 238.6 494.3 238.6 M 509.12 254.73 L 482.9 254.73 C 482.6 256.17 482.42 257.62 482.35 259.08 C 482.35 262.78 484.23 264.94 491.43 264.94 C 495.63 264.94 500.51 264.54 505.83 264.04 L 504.7 270.89 C 499.78 272.01 494.75 272.57 489.7 272.57 C 478.6 272.57 473.42 268.1 473.42 258.74 C 473.43 256.47 473.67 254.2 474.12 251.96 L 474.62 249.52 C 477.3 236.35 484.43 231.21 495.05 231.21 C 505.32 231.21 510.35 236.38 510.35 245.21 C 510.27 248.41 509.87 251.6 509.15 254.71" class="cls-2" style="fill: rgb(255, 81, 0);"/>
    <path d="M 481.93 224.48 L 483.2 217.21 L 512 217.21 L 510.75 224.49 L 481.93 224.49 Z" class="cls-2" style="fill: rgb(255, 81, 0);"/>
  </g>
</svg>