<?xml version="1.0" encoding="utf-8"?>
<svg viewBox="0 0 1000 300" xmlns="http://www.w3.org/2000/svg" xmlns:bx="https://boxy-svg.com">
  <g id="g4101" transform="matrix(7.67856, 0, 0, -7.67856, 80.02114, 1731.12903)" style="">
    <title>hp</title>
    <circle style="fill: rgb(255, 255, 255);" cx="54.7" cy="205.92" r="19.53"/>
    <path d="M 66.51 211.89 L 63.4 211.89 L 59.05 199.94 L 62.16 199.94 Z M 54.69 186.38 C 54.5 186.38 54.31 186.39 54.11 186.39 L 58.11 197.36 L 63.6 197.36 C 64.56 197.36 65.62 198.11 65.95 199.01 L 70.28 210.91 C 70.99 212.86 69.88 214.45 67.8 214.45 L 60.18 214.45 L 53.79 196.88 L 53.78 196.88 L 50.16 186.91 C 41.56 188.96 35.16 196.69 35.16 205.92 C 35.16 214.88 41.19 222.43 49.42 224.73 L 45.68 214.45 L 45.68 214.45 L 39.46 197.36 L 43.6 197.36 L 48.89 211.88 L 52 211.88 L 46.71 197.36 L 50.85 197.36 L 55.78 210.91 C 56.49 212.86 55.37 214.45 53.3 214.45 L 49.82 214.45 L 53.82 225.43 C 54.11 225.44 54.4 225.45 54.69 225.45 C 65.48 225.45 74.23 216.71 74.23 205.92 C 74.23 195.13 65.48 186.38 54.69 186.38" style="fill: rgb(30, 166, 230); fill-opacity: 1; fill-rule: nonzero; stroke: none; pointer-events: none;" id="path4109" bx:origin="0.00001 1.000036"/>
  </g>
</svg>